<?xml version="1.0" encoding="utf-8"?>
<!-- Svg Vector Icons : http://www.onlinewebfonts.com/icon -->
<!DOCTYPE svg PUBLIC "-//W3C//DTD SVG 1.1//EN" "http://www.w3.org/Graphics/SVG/1.1/DTD/svg11.dtd">
<svg version="1.1" xmlns="http://www.w3.org/2000/svg" xmlns:xlink="http://www.w3.org/1999/xlink" x="0px" y="0px" viewBox="0 0 1000 1000" enable-background="new 0 0 1000 1000" xml:space="preserve">
<metadata> Svg Vector Icons : http://www.onlinewebfonts.com/icon </metadata>
<g><path d="M841,990H159c-82.2,0-149-66.8-149-149V159C10,76.8,76.8,10,159,10h682c82.2,0,149,66.8,149,149v682C990,923.2,923.2,990,841,990z M159,113.1c-25.3,0-45.9,20.6-45.9,45.9v682c0,25.3,20.6,45.9,45.9,45.9h682c25.3,0,45.9-20.6,45.9-45.9V159c0-25.3-20.6-45.9-45.9-45.9L159,113.1L159,113.1z"/></g>
</svg>