<?xml version="1.0" encoding="utf-8"?>
<!-- Svg Vector Icons : http://www.onlinewebfonts.com/icon -->
<!DOCTYPE svg PUBLIC "-//W3C//DTD SVG 1.1//EN" "http://www.w3.org/Graphics/SVG/1.1/DTD/svg11.dtd">
<svg version="1.1" xmlns="http://www.w3.org/2000/svg" xmlns:xlink="http://www.w3.org/1999/xlink" x="0px" y="0px" viewBox="0 0 1000 1000" enable-background="new 0 0 1000 1000" xml:space="preserve">
<metadata> Svg Vector Icons : http://www.onlinewebfonts.com/icon </metadata>
<g><path d="M941,451H59c-29.4,0-49,19.6-49,49s19.6,49,49,49h882c29.4,0,49-19.6,49-49S970.4,451,941,451L941,451z M941,843H59c-29.4,0-49,19.6-49,49s19.6,49,49,49h882c29.4,0,49-19.6,49-49S970.4,843,941,843L941,843z M59,157h882c29.4,0,49-19.6,49-49s-19.6-49-49-49H59c-29.4,0-49,19.6-49,49S29.6,157,59,157L59,157z"/></g>
</svg>